<svg id="Rocket" xmlns="http://www.w3.org/2000/svg" viewBox="0 0 78 65.31"><defs><style>.cls-1{fill:#335eea;}.cls-2{fill:#263238;}.cls-3{fill:#fafafa;}</style></defs><title>rocket</title><path class="cls-1" d="M298.38,83.33s11.74-8.38,28-3c0,0,1.33,13.46-11.7,24.16" transform="translate(-248.42 -78.54)"/><path class="cls-1" d="M261.35,108.19c.5.75,13.25,21.24,13.25,21.24l38.27-23.58a13.4,13.4,0,0,0,3.74-19.38h0a13.39,13.39,0,0,0-18.23-3.14Z" transform="translate(-248.42 -78.54)"/><path class="cls-2" d="M274.6,129.43l-.86,14.42s24.8-12,18.61-25.36Z" transform="translate(-248.42 -78.54)"/><path class="cls-2" d="M279.08,96.29s-16.82-7.42-30.66,3.46l12.93,8.44Z" transform="translate(-248.42 -78.54)"/><path class="cls-2" d="M279,108.2l-23.93,15s.82,2.58,1.46,2.36,18.53-10.8,24.36-14.25a1.8,1.8,0,0,0,.47-2.69h0A1.81,1.81,0,0,0,279,108.2Z" transform="translate(-248.42 -78.54)"/><circle class="cls-3" cx="301.01" cy="96.85" r="7.66" transform="translate(-110.62 289.14) rotate(-76.76)"/><path class="cls-2" d="M308.67,96.85c-.06,0,0-.68-.34-1.84a7.58,7.58,0,0,0-2.8-4.1,7.42,7.42,0,0,0-3.15-1.37,7.52,7.52,0,0,0-3.9.34A7.35,7.35,0,0,0,295,92.47a7.38,7.38,0,0,0,0,8.76,7.43,7.43,0,0,0,3.44,2.6,7.53,7.53,0,0,0,3.9.34,7.42,7.42,0,0,0,3.15-1.37,7.62,7.62,0,0,0,2.8-4.1c.31-1.16.28-1.85.34-1.85a1.61,1.61,0,0,1,0,.5,6.17,6.17,0,0,1-.17,1.4,7.73,7.73,0,0,1-6.07,5.84,7.84,7.84,0,0,1-7.83-3.06,7.84,7.84,0,0,1,0-9.36,7.77,7.77,0,0,1,3.69-2.74,7.77,7.77,0,0,1,7.44,1.19A7.63,7.63,0,0,1,308.53,95a6.17,6.17,0,0,1,.17,1.4A1.51,1.51,0,0,1,308.67,96.85Z" transform="translate(-248.42 -78.54)"/><path class="cls-2" d="M318,102c-.1,0-.21-1.49-.8-3.82a30,30,0,0,0-1.33-4,29.27,29.27,0,0,0-5.56-8.61,29.59,29.59,0,0,0-3.09-2.86c-1.89-1.49-3.2-2.21-3.15-2.3a4.43,4.43,0,0,1,.95.45,11.59,11.59,0,0,1,1.07.63c.4.27.87.55,1.35.93a24.79,24.79,0,0,1,3.21,2.82A26.75,26.75,0,0,1,316.31,94a25.91,25.91,0,0,1,1.25,4.09c.15.59.21,1.14.29,1.62a11,11,0,0,1,.13,1.23A3.69,3.69,0,0,1,318,102Z" transform="translate(-248.42 -78.54)"/><path class="cls-2" d="M315.94,103.06c-.1,0-.22-1.51-.82-3.88a31,31,0,0,0-1.35-4.06,32,32,0,0,0-2.43-4.64,32.41,32.41,0,0,0-3.2-4.14A29.91,29.91,0,0,0,305,83.41c-1.91-1.53-3.24-2.27-3.19-2.36a4.5,4.5,0,0,1,1,.47,10.25,10.25,0,0,1,1.07.65c.41.27.89.57,1.37,1A27.45,27.45,0,0,1,308.49,86a29.79,29.79,0,0,1,3.29,4.19,30.47,30.47,0,0,1,2.43,4.74,26.79,26.79,0,0,1,1.27,4.16c.15.6.21,1.16.29,1.64a9.7,9.7,0,0,1,.14,1.25A4.84,4.84,0,0,1,315.94,103.06Z" transform="translate(-248.42 -78.54)"/></svg>